# xmcd CD database file
#
# Track frame offsets:
#	150
#	21437
#	36369
#	50819
#	66310
#	86818
#	109414
#	121783
#	145255
#	163946
#	175501
#	195559
#	210367
#	223665
#	260223
#	293740
#
# Disc length: 3993 seconds
#
# Revision: 0
# Processed by: cddbd v1.4PL0 Copyright (c) Steve Scherf et al.
# Submitted via: CDex 1.50
#
DISCID=fc0f9710
DTITLE=Varios Artists - - BBC - Where Blue begins - Jam 1
DYEAR=1900
DGENRE=Blues
TTITLE0=John Lee Hooker - Chill Out
TTITLE1=Isaac Scott - Help
TTITLE2=Bessie Smith - Blue blues
TTITLE3=B.B.King - Blues boys tune
TTITLE4=Danna Gillespie - Where blue begins
TTITLE5=Long John Hunter - Both ends of the road
TTITLE6=James Brown - It's man's, man's, man's, world
TTITLE7=Junior Wells - Use me
TTITLE8=Roy Buchanan - Flash chordin
TTITLE9=Etta James - I'd rather go blind
TTITLE10=Bill Wayman - Tabacco road
TTITLE11=Robert Ford - I can't stand the rain
TTITLE12=Bessie Smith - Nobody knows you
TTITLE13=Luther Allison - Lightning bolt
TTITLE14=B.B.King - The thrill is gone
TTITLE15=Reklama
EXTD=
EXTT0=
EXTT1=
EXTT2=
EXTT3=
EXTT4=
EXTT5=
EXTT6=
EXTT7=
EXTT8=
EXTT9=
EXTT10=
EXTT11=
EXTT12=
EXTT13=
EXTT14=
EXTT15=
PLAYORDER=
